{"title":"Identity Thief 2013 HDRip XviD AC3 BHRG","uid":8207784,"size":1610727026,"categoryP":"video","categoryS":"movies","magnet":"?xt=urn:btih:2bb04b47c78df111c1f85ad1996b572bcd41fc0d&amp;dn=Identity+Thief+2013+HDRip+XviD+AC3+BHRG&amp;tr=udp%3A%2F%2Ftracker.openbittorrent.com%3A80&amp;tr=udp%3A%2F%2Fopen.demonii.com%3A1337&amp;tr=udp%3A%2F%2Ftracker.coppersurfer.tk%3A6969&amp;tr=udp%3A%2F%2Fexodus.desync.com%3A6969","seeders":5,"leechers":0,"uploader":"tykoon123","files":-1,"time":1362164941,"description":" &lt;a href=&quot;http://www.shotpix.com/images/23955175056370503582.jpeg&quot; rel=&quot;nofollow&quot; target=&quot;_NEW&quot;&gt;http://www.shotpix.com/images/23955175056370503582.jpeg&lt;/a&gt;\n\nInfo:\n\nFormat : AVI\nFormat/Info : Audio Video Interleave\nFile size : 1.48 GiB\nDuration : 1h 51mn\nOverall bit rate : 1 898 Kbps\nWriting library : VirtualDub build 30091/release\n\nVideo\nID : 0\nFormat : MPEG-4 Visual\nFormat profile : Advanced Simple@L5\nFormat settings, BVOP : 2\nFormat settings, QPel : No\nFormat settings, GMC : No warppoints\nFormat settings, Matrix : Default (H.263)\nMuxing mode : Packed bitstream\nCodec ID : XVID\nCodec ID/Hint : XviD\nDuration : 1h 51mn\nBit rate : 1 696 Kbps\nWidth : 720 pixels\nHeight : 304 pixels\nDisplay aspect ratio : 2.35:1\nFrame rate : 25.000 fps\nColor space : YUV\nChroma subsampling : 4:2:0\nBit depth : 8 bits\nScan type : Progressive\nCompression mode : Lossy\nBits/(Pixel*Frame) : 0.310\nStream size : 1.32 GiB (89%)\nWriting library : XviD 1.2.1 (UTC 2008-12-04)\n\nAudio\nID : 1\nFormat : AC-3\nFormat/Info : Audio Coding 3\nMode extension : CM (complete main)\nFormat settings, Endianness : Big\nCodec ID : 2000\nDuration : 1h 51mn\nBit rate mode : Constant\nBit rate : 192 Kbps\nChannel(s) : 2 channels\nChannel positions : Front: L R\nSampling rate : 48.0 KHz\nBit depth : 16 bits\nCompression mode : Lossy\nStream size : 153 MiB (10%)\n\n\nScreens: &lt;a href=&quot;\nhttp://www.shotpix.com/images/59214653150800128299.png&quot; rel=&quot;nofollow&quot; target=&quot;_NEW&quot;&gt;\nhttp://www.shotpix.com/images/59214653150800128299.png&lt;/a&gt; &lt;a href=&quot;\nhttp://www.shotpix.com/images/00843470302379801509.png&quot; rel=&quot;nofollow&quot; target=&quot;_NEW&quot;&gt;\nhttp://www.shotpix.com/images/00843470302379801509.png&lt;/a&gt; &lt;a href=&quot;\nhttp://www.shotpix.com/images/92540148718359871135.png&quot; rel=&quot;nofollow&quot; target=&quot;_NEW&quot;&gt;\nhttp://www.shotpix.com/images/92540148718359871135.png&lt;/a&gt; &lt;a href=&quot;\nhttp://www.shotpix.com/images/81082114332648580369.png&quot; rel=&quot;nofollow&quot; target=&quot;_NEW&quot;&gt;\nhttp://www.shotpix.com/images/81082114332648580369.png&lt;/a&gt;\n\n\n\n\n","torrent":{"xt":"urn:btih:2bb04b47c78df111c1f85ad1996b572bcd41fc0d","amp;dn":"Identity+Thief+2013+HDRip+XviD+AC3+BHRG","amp;tr":["udp%3A%2F%2Ftracker.openbittorrent.com%3A80","udp%3A%2F%2Fopen.demonii.com%3A1337","udp%3A%2F%2Ftracker.coppersurfer.tk%3A6969","udp%3A%2F%2Fexodus.desync.com%3A6969"],"infoHash":"2bb04b47c78df111c1f85ad1996b572bcd41fc0d","infoHashBuffer":{"type":"Buffer","data":[43,176,75,71,199,141,241,17,193,248,90,209,153,107,87,43,205,65,252,13]},"announce":[],"urlList":[]}}